G04*
G04 #@! TF.GenerationSoftware,Altium Limited,Altium Designer,25.8.1 (18)*
G04*
G04 Layer_Color=8388736*
%FSLAX44Y44*%
%MOMM*%
G71*
G04*
G04 #@! TF.SameCoordinates,845D26C6-CDDF-46F2-9304-2575DF004011*
G04*
G04*
G04 #@! TF.FilePolarity,Negative*
G04*
G01*
G75*
%ADD26R,1.1500X0.3000*%
G04:AMPARAMS|DCode=43|XSize=0.3mm|YSize=1.15mm|CornerRadius=0.0375mm|HoleSize=0mm|Usage=FLASHONLY|Rotation=270.000|XOffset=0mm|YOffset=0mm|HoleType=Round|Shape=RoundedRectangle|*
%AMROUNDEDRECTD43*
21,1,0.3000,1.0750,0,0,270.0*
21,1,0.2250,1.1500,0,0,270.0*
1,1,0.0750,-0.5375,-0.1125*
1,1,0.0750,-0.5375,0.1125*
1,1,0.0750,0.5375,0.1125*
1,1,0.0750,0.5375,-0.1125*
%
%ADD43ROUNDEDRECTD43*%
G04:AMPARAMS|DCode=48|XSize=3.1mm|YSize=1.1mm|CornerRadius=0.3mm|HoleSize=0mm|Usage=FLASHONLY|Rotation=0.000|XOffset=0mm|YOffset=0mm|HoleType=Round|Shape=RoundedRectangle|*
%AMROUNDEDRECTD48*
21,1,3.1000,0.5000,0,0,0.0*
21,1,2.5000,1.1000,0,0,0.0*
1,1,0.6000,1.2500,-0.2500*
1,1,0.6000,-1.2500,-0.2500*
1,1,0.6000,-1.2500,0.2500*
1,1,0.6000,1.2500,0.2500*
%
%ADD48ROUNDEDRECTD48*%
G04:AMPARAMS|DCode=49|XSize=3.1mm|YSize=1.1mm|CornerRadius=0.3mm|HoleSize=0mm|Usage=FLASHONLY|Rotation=90.000|XOffset=0mm|YOffset=0mm|HoleType=Round|Shape=RoundedRectangle|*
%AMROUNDEDRECTD49*
21,1,3.1000,0.5000,0,0,90.0*
21,1,2.5000,1.1000,0,0,90.0*
1,1,0.6000,0.2500,1.2500*
1,1,0.6000,0.2500,-1.2500*
1,1,0.6000,-0.2500,-1.2500*
1,1,0.6000,-0.2500,1.2500*
%
%ADD49ROUNDEDRECTD49*%
%ADD50R,1.7000X3.3000*%
%ADD51R,0.9500X0.9500*%
%ADD52R,0.9500X0.9500*%
%ADD53R,1.1000X0.7000*%
%ADD54R,1.7000X1.1000*%
G04:AMPARAMS|DCode=55|XSize=2.1mm|YSize=1.7mm|CornerRadius=0.13mm|HoleSize=0mm|Usage=FLASHONLY|Rotation=0.000|XOffset=0mm|YOffset=0mm|HoleType=Round|Shape=RoundedRectangle|*
%AMROUNDEDRECTD55*
21,1,2.1000,1.4400,0,0,0.0*
21,1,1.8400,1.7000,0,0,0.0*
1,1,0.2600,0.9200,-0.7200*
1,1,0.2600,-0.9200,-0.7200*
1,1,0.2600,-0.9200,0.7200*
1,1,0.2600,0.9200,0.7200*
%
%ADD55ROUNDEDRECTD55*%
G04:AMPARAMS|DCode=56|XSize=1.2mm|YSize=0.7mm|CornerRadius=0.125mm|HoleSize=0mm|Usage=FLASHONLY|Rotation=0.000|XOffset=0mm|YOffset=0mm|HoleType=Round|Shape=RoundedRectangle|*
%AMROUNDEDRECTD56*
21,1,1.2000,0.4500,0,0,0.0*
21,1,0.9500,0.7000,0,0,0.0*
1,1,0.2500,0.4750,-0.2250*
1,1,0.2500,-0.4750,-0.2250*
1,1,0.2500,-0.4750,0.2250*
1,1,0.2500,0.4750,0.2250*
%
%ADD56ROUNDEDRECTD56*%
%ADD57O,0.7000X1.9500*%
G04:AMPARAMS|DCode=58|XSize=5.18mm|YSize=2.52mm|CornerRadius=0.3525mm|HoleSize=0mm|Usage=FLASHONLY|Rotation=180.000|XOffset=0mm|YOffset=0mm|HoleType=Round|Shape=RoundedRectangle|*
%AMROUNDEDRECTD58*
21,1,5.1800,1.8150,0,0,180.0*
21,1,4.4750,2.5200,0,0,180.0*
1,1,0.7050,-2.2375,0.9075*
1,1,0.7050,2.2375,0.9075*
1,1,0.7050,2.2375,-0.9075*
1,1,0.7050,-2.2375,-0.9075*
%
%ADD58ROUNDEDRECTD58*%
%ADD59R,0.7000X1.1000*%
%ADD60R,2.6000X1.8000*%
G04:AMPARAMS|DCode=61|XSize=1.6mm|YSize=1mm|CornerRadius=0.1625mm|HoleSize=0mm|Usage=FLASHONLY|Rotation=180.000|XOffset=0mm|YOffset=0mm|HoleType=Round|Shape=RoundedRectangle|*
%AMROUNDEDRECTD61*
21,1,1.6000,0.6750,0,0,180.0*
21,1,1.2750,1.0000,0,0,180.0*
1,1,0.3250,-0.6375,0.3375*
1,1,0.3250,0.6375,0.3375*
1,1,0.3250,0.6375,-0.3375*
1,1,0.3250,-0.6375,-0.3375*
%
%ADD61ROUNDEDRECTD61*%
%ADD62R,3.8000X3.8000*%
%ADD63R,0.9000X0.9000*%
G04:AMPARAMS|DCode=64|XSize=1.7mm|YSize=0.7mm|CornerRadius=0.125mm|HoleSize=0mm|Usage=FLASHONLY|Rotation=270.000|XOffset=0mm|YOffset=0mm|HoleType=Round|Shape=RoundedRectangle|*
%AMROUNDEDRECTD64*
21,1,1.7000,0.4500,0,0,270.0*
21,1,1.4500,0.7000,0,0,270.0*
1,1,0.2500,-0.2250,-0.7250*
1,1,0.2500,-0.2250,0.7250*
1,1,0.2500,0.2250,0.7250*
1,1,0.2500,0.2250,-0.7250*
%
%ADD64ROUNDEDRECTD64*%
%ADD65R,3.6100X2.7200*%
%ADD66R,2.5000X1.1000*%
%ADD67C,2.0000*%
%ADD68R,2.5000X3.4000*%
%ADD69R,1.1000X1.3500*%
G04:AMPARAMS|DCode=70|XSize=1.1mm|YSize=1.1mm|CornerRadius=0.3mm|HoleSize=0mm|Usage=FLASHONLY|Rotation=0.000|XOffset=0mm|YOffset=0mm|HoleType=Round|Shape=RoundedRectangle|*
%AMROUNDEDRECTD70*
21,1,1.1000,0.5000,0,0,0.0*
21,1,0.5000,1.1000,0,0,0.0*
1,1,0.6000,0.2500,-0.2500*
1,1,0.6000,-0.2500,-0.2500*
1,1,0.6000,-0.2500,0.2500*
1,1,0.6000,0.2500,0.2500*
%
%ADD70ROUNDEDRECTD70*%
G04:AMPARAMS|DCode=71|XSize=1.6mm|YSize=1mm|CornerRadius=0.1625mm|HoleSize=0mm|Usage=FLASHONLY|Rotation=270.000|XOffset=0mm|YOffset=0mm|HoleType=Round|Shape=RoundedRectangle|*
%AMROUNDEDRECTD71*
21,1,1.6000,0.6750,0,0,270.0*
21,1,1.2750,1.0000,0,0,270.0*
1,1,0.3250,-0.3375,-0.6375*
1,1,0.3250,-0.3375,0.6375*
1,1,0.3250,0.3375,0.6375*
1,1,0.3250,0.3375,-0.6375*
%
%ADD71ROUNDEDRECTD71*%
%ADD72R,1.1000X1.6000*%
%ADD73R,3.4000X2.5000*%
G04:AMPARAMS|DCode=74|XSize=5.18mm|YSize=2.39mm|CornerRadius=0.3363mm|HoleSize=0mm|Usage=FLASHONLY|Rotation=180.000|XOffset=0mm|YOffset=0mm|HoleType=Round|Shape=RoundedRectangle|*
%AMROUNDEDRECTD74*
21,1,5.1800,1.7175,0,0,180.0*
21,1,4.5075,2.3900,0,0,180.0*
1,1,0.6725,-2.2538,0.8588*
1,1,0.6725,2.2538,0.8588*
1,1,0.6725,2.2538,-0.8588*
1,1,0.6725,-2.2538,-0.8588*
%
%ADD74ROUNDEDRECTD74*%
%ADD75R,1.9000X1.2000*%
G04:AMPARAMS|DCode=76|XSize=1.95mm|YSize=3.5mm|CornerRadius=0.2813mm|HoleSize=0mm|Usage=FLASHONLY|Rotation=0.000|XOffset=0mm|YOffset=0mm|HoleType=Round|Shape=RoundedRectangle|*
%AMROUNDEDRECTD76*
21,1,1.9500,2.9375,0,0,0.0*
21,1,1.3875,3.5000,0,0,0.0*
1,1,0.5625,0.6938,-1.4688*
1,1,0.5625,-0.6938,-1.4688*
1,1,0.5625,-0.6938,1.4688*
1,1,0.5625,0.6938,1.4688*
%
%ADD76ROUNDEDRECTD76*%
G04:AMPARAMS|DCode=77|XSize=1.2mm|YSize=0.7mm|CornerRadius=0.125mm|HoleSize=0mm|Usage=FLASHONLY|Rotation=90.000|XOffset=0mm|YOffset=0mm|HoleType=Round|Shape=RoundedRectangle|*
%AMROUNDEDRECTD77*
21,1,1.2000,0.4500,0,0,90.0*
21,1,0.9500,0.7000,0,0,90.0*
1,1,0.2500,0.2250,0.4750*
1,1,0.2500,0.2250,-0.4750*
1,1,0.2500,-0.2250,-0.4750*
1,1,0.2500,-0.2250,0.4750*
%
%ADD77ROUNDEDRECTD77*%
%ADD78C,1.7000*%
%ADD79C,5.1000*%
%ADD80C,2.1000*%
%ADD81R,2.1000X2.1000*%
%ADD82C,0.6000*%
%ADD83C,0.7000*%
G04:AMPARAMS|DCode=84|XSize=2.1mm|YSize=2.1mm|CornerRadius=0mm|HoleSize=0mm|Usage=FLASHONLY|Rotation=180.000|XOffset=0mm|YOffset=0mm|HoleType=Round|Shape=Octagon|*
%AMOCTAGOND84*
4,1,8,-1.0500,0.5250,-1.0500,-0.5250,-0.5250,-1.0500,0.5250,-1.0500,1.0500,-0.5250,1.0500,0.5250,0.5250,1.0500,-0.5250,1.0500,-1.0500,0.5250,0.0*
%
%ADD84OCTAGOND84*%

G04:AMPARAMS|DCode=85|XSize=1.7mm|YSize=1.7mm|CornerRadius=0mm|HoleSize=0mm|Usage=FLASHONLY|Rotation=270.000|XOffset=0mm|YOffset=0mm|HoleType=Round|Shape=Octagon|*
%AMOCTAGOND85*
4,1,8,-0.4250,-0.8500,0.4250,-0.8500,0.8500,-0.4250,0.8500,0.4250,0.4250,0.8500,-0.4250,0.8500,-0.8500,0.4250,-0.8500,-0.4250,-0.4250,-0.8500,0.0*
%
%ADD85OCTAGOND85*%

%ADD86O,2.3000X1.1000*%
%ADD87O,1.9000X1.1000*%
%ADD88C,0.9032*%
D26*
X75000Y290500D02*
D03*
Y293500D02*
D03*
Y226500D02*
D03*
Y229500D02*
D03*
Y237500D02*
D03*
Y234500D02*
D03*
Y285500D02*
D03*
Y282500D02*
D03*
D43*
Y257500D02*
D03*
Y262500D02*
D03*
Y252500D02*
D03*
Y267500D02*
D03*
Y247500D02*
D03*
Y272500D02*
D03*
Y242500D02*
D03*
Y277500D02*
D03*
D48*
X648000Y138000D02*
D03*
X890000Y213000D02*
D03*
Y228000D02*
D03*
X648000Y186000D02*
D03*
X904000Y116000D02*
D03*
X648000Y172000D02*
D03*
X904000Y130000D02*
D03*
X613000Y172000D02*
D03*
X941000Y138000D02*
D03*
X648000Y153000D02*
D03*
X941000D02*
D03*
X640000Y110000D02*
D03*
X613000Y186000D02*
D03*
D49*
X777000Y290000D02*
D03*
X807000D02*
D03*
X732000D02*
D03*
X792000D02*
D03*
X762000D02*
D03*
X747000D02*
D03*
X717000D02*
D03*
D50*
X521000Y47000D02*
D03*
X581000D02*
D03*
D51*
X660000Y255000D02*
D03*
X550000D02*
D03*
X102000Y19000D02*
D03*
X555000Y99000D02*
D03*
X248000Y139000D02*
D03*
X288000Y35000D02*
D03*
X903000Y102000D02*
D03*
X555000Y116000D02*
D03*
X78000Y81000D02*
D03*
X92000D02*
D03*
X78000Y94000D02*
D03*
X92000D02*
D03*
X761000Y259000D02*
D03*
X775000D02*
D03*
X896000Y198000D02*
D03*
X882000D02*
D03*
X569000Y116000D02*
D03*
X605000D02*
D03*
X591000D02*
D03*
X889000Y102000D02*
D03*
X852000Y270000D02*
D03*
X838000D02*
D03*
X538000Y140000D02*
D03*
X552000D02*
D03*
X522000D02*
D03*
X508000D02*
D03*
X302000Y35000D02*
D03*
X337000D02*
D03*
X323000D02*
D03*
X232000D02*
D03*
X218000D02*
D03*
X218000Y50000D02*
D03*
X232000D02*
D03*
X262000Y139000D02*
D03*
X569000Y99000D02*
D03*
X88000Y19000D02*
D03*
X564000Y255000D02*
D03*
X598000Y221000D02*
D03*
X612000D02*
D03*
X612000Y206000D02*
D03*
X598000D02*
D03*
X646000Y255000D02*
D03*
D52*
X912000Y195000D02*
D03*
Y166000D02*
D03*
X889000Y31000D02*
D03*
Y84000D02*
D03*
X111000Y72000D02*
D03*
X975000Y118000D02*
D03*
Y104000D02*
D03*
X111000Y86000D02*
D03*
X126000Y72000D02*
D03*
Y86000D02*
D03*
X587000Y174000D02*
D03*
Y188000D02*
D03*
X571000Y188000D02*
D03*
Y174000D02*
D03*
X410000Y288000D02*
D03*
Y302000D02*
D03*
X652000Y50000D02*
D03*
Y36000D02*
D03*
X633000Y78000D02*
D03*
Y92000D02*
D03*
X607000Y92000D02*
D03*
Y78000D02*
D03*
X889000Y70000D02*
D03*
Y45000D02*
D03*
X912000Y152000D02*
D03*
Y181000D02*
D03*
X581000Y243000D02*
D03*
Y257000D02*
D03*
X597000Y257000D02*
D03*
Y243000D02*
D03*
X390000Y288000D02*
D03*
Y302000D02*
D03*
X613000Y243000D02*
D03*
Y257000D02*
D03*
X629000Y243000D02*
D03*
Y257000D02*
D03*
X450000Y288000D02*
D03*
Y302000D02*
D03*
D53*
X932000Y111000D02*
D03*
X607000Y40500D02*
D03*
X610000Y149000D02*
D03*
X586000Y139500D02*
D03*
Y158500D02*
D03*
X631000Y50000D02*
D03*
X607000Y59500D02*
D03*
X956000Y120500D02*
D03*
Y101500D02*
D03*
D54*
X235000Y85000D02*
D03*
X265000D02*
D03*
X360000Y75000D02*
D03*
X390000D02*
D03*
Y105000D02*
D03*
X360000D02*
D03*
X265000Y115000D02*
D03*
X235000D02*
D03*
D55*
X538000Y285000D02*
D03*
X677000D02*
D03*
X623000D02*
D03*
X592000D02*
D03*
D56*
X107000Y240000D02*
D03*
X133000Y249500D02*
D03*
Y240000D02*
D03*
Y230500D02*
D03*
X107000D02*
D03*
Y249500D02*
D03*
D57*
X294450Y294000D02*
D03*
X205550D02*
D03*
X218250D02*
D03*
X230950D02*
D03*
X243650D02*
D03*
X256350D02*
D03*
X269050D02*
D03*
X281750D02*
D03*
X205550Y236000D02*
D03*
X218250D02*
D03*
X230950D02*
D03*
X243650D02*
D03*
X256350D02*
D03*
X269050D02*
D03*
X281750D02*
D03*
X294450D02*
D03*
D58*
X965000Y267500D02*
D03*
Y182500D02*
D03*
D59*
X269500Y28000D02*
D03*
X250500D02*
D03*
X260000Y52000D02*
D03*
X505500Y158000D02*
D03*
X524500D02*
D03*
X515000Y182000D02*
D03*
X566000Y233000D02*
D03*
X575500Y209000D02*
D03*
X556500D02*
D03*
X644000Y233000D02*
D03*
X653500Y209000D02*
D03*
X634500D02*
D03*
D60*
X450000Y195000D02*
D03*
Y155000D02*
D03*
D61*
X857500Y57800D02*
D03*
X682500D02*
D03*
Y70500D02*
D03*
Y83200D02*
D03*
Y95900D02*
D03*
Y108600D02*
D03*
Y121300D02*
D03*
Y134000D02*
D03*
Y146700D02*
D03*
Y159400D02*
D03*
Y172100D02*
D03*
Y184800D02*
D03*
Y197500D02*
D03*
Y210200D02*
D03*
Y222900D02*
D03*
X857500D02*
D03*
Y210200D02*
D03*
Y197500D02*
D03*
Y184800D02*
D03*
Y172100D02*
D03*
Y159400D02*
D03*
Y146700D02*
D03*
Y134000D02*
D03*
Y121300D02*
D03*
Y108600D02*
D03*
Y95900D02*
D03*
Y83200D02*
D03*
Y70500D02*
D03*
D62*
X785000Y135000D02*
D03*
D63*
X430000Y287500D02*
D03*
Y302500D02*
D03*
X116000Y303500D02*
D03*
Y288500D02*
D03*
X95000D02*
D03*
Y303500D02*
D03*
D64*
X329050Y62000D02*
D03*
X316350D02*
D03*
X290950D02*
D03*
X303650D02*
D03*
X290950Y118000D02*
D03*
X303650D02*
D03*
X316350D02*
D03*
X329050D02*
D03*
D65*
X310000Y90000D02*
D03*
D66*
X917000Y81000D02*
D03*
Y58000D02*
D03*
Y35000D02*
D03*
D67*
X190000Y18000D02*
D03*
X983000Y303000D02*
D03*
D68*
X975000Y58000D02*
D03*
X167000Y180000D02*
D03*
X233000D02*
D03*
D69*
X539000Y82000D02*
D03*
X519000D02*
D03*
X100000Y112000D02*
D03*
X80000D02*
D03*
D70*
X275000Y56000D02*
D03*
X480000Y150000D02*
D03*
X135000Y122000D02*
D03*
X147000Y202000D02*
D03*
X643000Y63000D02*
D03*
X590000Y99000D02*
D03*
X567000Y135000D02*
D03*
X977000Y23000D02*
D03*
X537000Y125000D02*
D03*
D71*
X839850Y235400D02*
D03*
X827150D02*
D03*
X814450D02*
D03*
X801750D02*
D03*
X789050D02*
D03*
X776350D02*
D03*
X763650D02*
D03*
X750950D02*
D03*
X738250D02*
D03*
X725550D02*
D03*
X712850D02*
D03*
X700150D02*
D03*
D72*
X550000Y188750D02*
D03*
Y161250D02*
D03*
D73*
X390000Y137000D02*
D03*
Y203000D02*
D03*
X109000D02*
D03*
Y137000D02*
D03*
D74*
X965000Y225000D02*
D03*
D75*
X889002Y180498D02*
D03*
Y155498D02*
D03*
D76*
X282250Y175000D02*
D03*
X337750D02*
D03*
D77*
X78500Y63000D02*
D03*
X88000D02*
D03*
X97500D02*
D03*
Y37000D02*
D03*
X88000D02*
D03*
X78500D02*
D03*
D78*
X180000Y82500D02*
D03*
X450000Y77500D02*
D03*
X30000Y62500D02*
D03*
Y87500D02*
D03*
Y37500D02*
D03*
D79*
X155000Y35000D02*
D03*
X490000Y285000D02*
D03*
X155000D02*
D03*
D80*
X22300Y162300D02*
D03*
X344200Y255000D02*
D03*
X395000D02*
D03*
X420400D02*
D03*
X369600D02*
D03*
X47700Y187700D02*
D03*
Y162300D02*
D03*
D81*
X22300Y187700D02*
D03*
D82*
X103000Y184000D02*
D03*
X117000Y170000D02*
D03*
X103000D02*
D03*
X117000Y156000D02*
D03*
X103000D02*
D03*
X117000Y184000D02*
D03*
D83*
X778000Y135000D02*
D03*
Y121000D02*
D03*
Y149000D02*
D03*
X771000Y142000D02*
D03*
Y128000D02*
D03*
X785000Y142000D02*
D03*
Y128000D02*
D03*
X792000Y135000D02*
D03*
Y121000D02*
D03*
Y149000D02*
D03*
X799000Y142000D02*
D03*
Y128000D02*
D03*
D84*
X445800Y255000D02*
D03*
D85*
X450000Y112500D02*
D03*
X30000Y112500D02*
D03*
X180000Y117500D02*
D03*
D86*
X23500Y303200D02*
D03*
Y216800D02*
D03*
D87*
X63500Y303200D02*
D03*
Y216800D02*
D03*
D88*
X188000Y158000D02*
D03*
X191000Y145000D02*
D03*
X204000Y142000D02*
D03*
X215000Y145000D02*
D03*
X255000Y210000D02*
D03*
Y165000D02*
D03*
X230000Y140000D02*
D03*
X270000Y210000D02*
D03*
X285000D02*
D03*
X300000D02*
D03*
X345000Y55000D02*
D03*
X360000D02*
D03*
X375000D02*
D03*
X390000D02*
D03*
X405000D02*
D03*
X420000D02*
D03*
X275000Y70000D02*
D03*
X250000D02*
D03*
X235000Y65000D02*
D03*
X220000D02*
D03*
X205000Y100000D02*
D03*
Y85000D02*
D03*
X603000Y186000D02*
D03*
X622000D02*
D03*
X475000Y45000D02*
D03*
X455000Y27000D02*
D03*
X495000Y20000D02*
D03*
X485000Y60000D02*
D03*
X350000Y290000D02*
D03*
X330000D02*
D03*
X255000Y260000D02*
D03*
X320000Y275000D02*
D03*
X40000Y290000D02*
D03*
Y230000D02*
D03*
X15000Y260000D02*
D03*
X16000Y75000D02*
D03*
Y50000D02*
D03*
X375000Y26000D02*
D03*
X945000Y300000D02*
D03*
X922500D02*
D03*
X195000Y200000D02*
D03*
Y170000D02*
D03*
X185000Y220000D02*
D03*
X166000Y219000D02*
D03*
X310000Y290000D02*
D03*
X907500Y280000D02*
D03*
X895000Y300000D02*
D03*
X925000Y272500D02*
D03*
X887500Y280000D02*
D03*
X177000Y140000D02*
D03*
X305000Y234000D02*
D03*
X147000Y202000D02*
D03*
X796000Y258000D02*
D03*
X944000Y58000D02*
D03*
X840000Y290000D02*
D03*
X835000Y282000D02*
D03*
Y298000D02*
D03*
X148000Y238000D02*
D03*
X355000Y35000D02*
D03*
X922000Y21000D02*
D03*
X909000D02*
D03*
M02*
