M48
;Layer_Color=9474304
;FILE_FORMAT=4:4
METRIC,LZ
;TYPE=PLATED
T01F00S00C0.2000
T02F00S00C0.3110
T03F00S00C0.3500
T05F00S00C0.8000
T06F00S00C1.0000
T07F00S00C1.1000
T08F00S00C3.0000
%
T01
X00103Y00156
Y0017
Y00184
X00117
Y0017
Y00156
T02
X00016Y0005
Y00075
X00051Y00084
X00065Y00063
X00063Y00047
X00109Y000475
X00138Y00069
Y0008
X00156Y00079
X00146Y00096
X00137Y00107
X00129
X00121
X00113
X00086Y00125
Y00133
X00016Y00126
X00205Y001
Y00085
X0022Y00065
X00235
X0025Y0007
X00263
X00275
X00269Y00041
X00296Y00047
X00314
X00345Y00055
X0036
X00375
X0039
X00405
X0042
X00402Y00026
X00375
X00355Y00035
X00342Y00069
Y00085
Y00098
Y00111
X00345Y00125
X00355Y00135
X00425
X00475Y00105
X00485Y0006
X00475Y00045
X00455Y00027
X00495Y0002
X0054Y00021
Y00034
Y00046
Y00059
X00535Y001
X00525
X00525Y0011
X00535
X00545Y00116
X00569Y00082
X00579
X00589
X00584Y00074
X00575
X00265Y001
X00235
X00205Y0005
X00197846Y00038096
X00204Y00029
X00209Y00019
X00219
X00634Y00031
X00653Y00019
Y00072
X00644Y00077
X00646Y00088
X0062Y00077
X00616Y00117
X007Y001
X0074
X0078
X00774Y00068
X00754
X00763Y00056
X00785
X00795Y00068
X0082Y001
X00915Y00096
X00924
X00933
X00928Y00124
X00965Y00136
X00978
X0098Y00085
X00952Y00082
X00944Y00058
Y00039
X00942Y00017
X00922Y00021
X00909
X00893Y00017
X00883
X00872Y00189
X00837412Y00192412
X00828Y00196
X00819Y00201
X0082Y0018
X0078
X0074
X007
Y0014
X0074
X0082
X00814Y00219
X00802
X00789
X00777
X00764
X00751
X0072Y0022
X00687Y00234
X00665142Y0021615
X00666Y00202
X00622Y00186
X00603
X00614Y00138
X00832Y00218
X00842Y00258
X0085427Y0024638
X0087Y0024
X008875Y0028
X009075
X00925Y002725
X009225Y003
X00945
X00895
X00835Y00298
X0084Y0029
X00835Y00282
X00825Y0027
X00796Y00258
X00915Y002175
X00927Y00218
Y00203
Y00188
Y00173
X00933Y00164
X00965Y0016
Y00148
X00562Y00149
X00528Y00192
X00506Y00197
X005105Y0021125
X0049775Y002185
X00519148Y00229148
X00529Y0023
X00521Y00255
X00556Y00221
X0058675Y0021125
X00589Y00268
X00442Y00279
X00425Y0021
Y00195
Y0018
Y00165
X00425474Y001516
X0041Y00165
X00395
X0038
X0037Y0016
X00365Y00145
X00255Y0015
Y00165
Y0018
Y00195
Y0021
X0027
X00285
X003
X00305Y00234
X0032Y00275
X0033Y0029
X0035
X00373Y00302
X0031Y0029
X00255Y00275
Y0026
X00216Y00258
X00215Y00203
X00223
X00231
X00239
X00214Y00195
Y00187
Y00179
Y00171
X00195Y0017
Y002
X00204Y00142
X00215Y00145
X0023Y0014
X0024Y0015
X00467Y00161
X00475
X00483
X00491
X00475Y00176
Y00187
Y002
X00185Y0022
X00166Y00219
X00135Y00218
X0012Y00226
X00148Y00238
X00147Y00202
X00159Y00157
X00167
X00175
X00188Y00158
X00191Y00145
X00177Y0014
X00166Y00143
X00086
X00079Y00138
X00087Y00199
X0006Y00247
Y00269
Y00283
X0004Y0029
X00018Y00283
X00015Y0026
X00018Y00236
X0004Y0023
X001Y00262
X00092Y00273
X00105Y00277
X00115
X00105Y00305
T03
X00778Y00121
Y00135
X00771Y00128
X00785
X00792Y00135
X00799Y00128
X00792Y00121
X00799Y00142
X00785
X00771
X00778Y00149
X00792
T05
X0018Y000825
Y001175
X0045Y001125
Y000775
T06
X0003Y000375
Y000625
Y000875
Y001125
T07
X003442Y00255
X003696
X00395
X004204
X004458
X000477Y001877
X000223
Y001623
X000477
T08
X00155Y00035
X0049Y00285
X00155
M30
